<svg id="Camada_1" data-name="Camada 1" xmlns="http://www.w3.org/2000/svg" viewBox="0 0 692.3 534.6"><defs><style>.cls-1{fill:#ff6700;}.cls-2{fill:#cc191b;}</style></defs><polygon class="cls-1" points="60.78 487.58 115.97 487.24 99.42 515.55 88.29 534.6 77.16 515.55 60.78 487.58"/><path class="cls-2" d="M813.12,1145.83l-141.49.89,17.9,30.43-.08-10.88,23.91-.13.17,26-15.28.09,11.22,19.17L775,1211l14.39-24.59-.13-20.74,12.32-.09ZM739.56,1192l-.17-26,23.87-.12.17,26Z" transform="translate(-653.85 -732.7)"/><polygon class="cls-1" points="192.24 486.77 369.41 485.67 351.93 515.55 175.39 515.55 192.24 486.77"/><path class="cls-2" d="M868.39,1181.3l-5.12,8.76-.68,1.18-11.3,19.3,177.17-1.1,11.3-19.3h-2.66l-.17-26L1055,1164l11.56-19.73-177.21,1.1Zm142.51-17.06.17,26-28.7.21-.17-26Zm-48,.38.13,26-23.87.13-.17-26ZM913.17,1191l-23.87.12-.17-26,23.87-.12Z" transform="translate(-653.85 -732.7)"/><polygon class="cls-1" points="345.49 224.53 307.53 159.56 219.24 8.55 130.99 159.56 88.29 232.57 0 383.63 12.61 405.17 164.47 404.24 176.53 383.63 219.24 310.53 257.2 375.59 240.74 403.73 417.95 402.63 433.78 375.59 345.49 224.53"/><polygon class="cls-1" points="447.66 485.16 624.88 484.06 606.47 515.55 429.89 515.55 447.66 485.16"/><path class="cls-2" d="M1322,1142.7l-177.17,1.1-18.2,31.15-19.89,34,177.21-1.1,11.26-19.3-8.51,0-.17-26,23.88-.13v.13Zm-185,46.81-.17-26,23.87-.13.17,26Zm49.9-.3-.17-26,23.91-.17.13,26Zm49.9-.3-.13-26,23.88-.17.16,26Z" transform="translate(-653.85 -732.7)"/><polygon class="cls-1" points="692.3 368.64 673.38 401.06 673.34 401.06 496.17 402.17 515.76 368.64 476.78 301.98 388.54 150.97 476.78 0 565.07 150.97 604.05 217.67 692.3 368.64"/><polygon class="cls-2" points="85.48 441.5 85.48 442.49 84.91 442.49 85.48 441.5"/></svg>