<svg id="Camada_1" data-name="Camada 1" xmlns="http://www.w3.org/2000/svg" viewBox="0 0 1006.1 652.17"><defs><style>.cls-1{font-size:141.13px;fill:#100908;font-family:Poppins-SemiBold, Poppins;font-weight:600;}.cls-2{fill:#ff6700;}.cls-3{fill:#cc191b;}</style></defs><text class="cls-1" transform="translate(0 568.48)">MAKAMBA<tspan class="cls-2" x="741.21" y="0">TEC</tspan></text><polygon class="cls-2" points="269.27 399.43 314.49 399.15 300.93 422.35 291.81 437.95 282.69 422.35 269.27 399.43"/><path class="cls-3" d="M846.9,1012.35l-115.91.73L745.66,1038l-.07-8.91,19.59-.1.14,21.32-12.52.07L762,1066.1l53.71-.35,11.79-20.15-.11-17,10.09-.07Zm-60.26,37.83-.14-21.32,19.56-.11.14,21.33Z" transform="translate(-496.95 -673.91)"/><polygon class="cls-2" points="376.96 398.77 522.1 397.87 507.79 422.35 363.17 422.35 376.96 398.77"/><path class="cls-3" d="M892.19,1041.41l-4.2,7.18-.55,1-9.26,15.81,145.14-.9,9.25-15.81h-2.18l-.14-21.33,14.84-.1,9.47-16.16-145.18.9Zm116.74-14,.14,21.32-23.51.17-.14-21.32Zm-39.29.31.11,21.32-19.56.11-.14-21.33Zm-40.77,21.57-19.56.1-.13-21.32,19.55-.11Z" transform="translate(-496.95 -673.91)"/><polygon class="cls-2" points="502.51 183.94 471.41 130.72 399.09 7 326.79 130.72 291.81 190.53 219.48 314.27 229.81 331.92 354.22 331.16 364.1 314.27 399.09 254.39 430.19 307.69 416.7 330.74 561.87 329.84 574.84 307.69 502.51 183.94"/><polygon class="cls-2" points="586.21 397.45 731.39 396.55 716.3 422.35 571.65 422.35 586.21 397.45"/><path class="cls-3" d="M1263.77,1009.79l-145.14.9-14.91,25.52-16.29,27.84,145.17-.9,9.22-15.81-7,0-.13-21.32,19.55-.1v.1Zm-151.59,38.35-.14-21.33,19.56-.1.14,21.32Zm40.88-.25-.14-21.32,19.59-.14.11,21.33Zm40.88-.24-.1-21.32,19.55-.14.14,21.32Z" transform="translate(-496.95 -673.91)"/><polygon class="cls-2" points="786.62 302 771.12 328.56 771.09 328.56 625.95 329.46 642 302 610.07 247.39 537.78 123.68 610.07 0 682.39 123.68 714.33 178.32 786.62 302"/><polygon class="cls-3" points="289.51 361.68 289.51 362.5 289.04 362.5 289.51 361.68"/></svg>